# xmcd
#
# Track frame offsets:
#	150
#	16142
#	36360
#	55390
#	75142
#	91842
#	106320
#	126205
#	140885
#	156075
#	168572
#	182942
#
# Disc length: 2605 seconds
#
# Revision: 0
# Processed by: cddbd v1.4b42PL1 Copyright (c) Steve Scherf et al.
# Submitted via: audiograbber 1.80.04
#
DISCID=990a2b0c
DTITLE=Various Artist - The Best Of Country Line Dancing
DYEAR=1900
DGENRE=
TTITLE0=Wolerines - Gonna Ride All Night Long
TTITLE1=Graeme Connors - The Road Less Travelled
TTITLE2=Lee Kernaghan - Cause I`m Country
TTITLE3=Anne KirkPatrick - The Dance
TTITLE4=Lee Kernaghan - She`s My Ute
TTITLE5=Gina Jefferies - Girls Night Out
TTITLE6=Jane Saunders - Fast Train
TTITLE7=Graeme Connors - Big Jimmy and Feliciad
TTITLE8=Lee Kernaghan - The Outback Club
TTITLE9=Tania Kernaghan - Back Of The Barn
TTITLE10=Gina Jefferies - Getting Used To Getting Over You
TTITLE11=The Wolverines - Hip Square Dance
EXTD=
EXTT0=
EXTT1=
EXTT2=
EXTT3=
EXTT4=
EXTT5=
EXTT6=
EXTT7=
EXTT8=
EXTT9=
EXTT10=
EXTT11=
PLAYORDER=
